<svg version="1.0" xmlns="http://www.w3.org/2000/svg" width="212px" height="212px" viewBox="0 0 512 512" >
    <linearGradient id="grad--linear-1">
      <stop offset="0%" stop-color="crimson" 
          class="stop-1"/>   
      <stop offset="50%" stop-color="crimson"
          class="stop-2"/>
      <stop offset="100%" stop-color="crimson" 
          class="stop-3"/>
    </linearGradient>

  <path fill="url(#grad--linear-1)" d="M244 505 c-2.2 -2.2 -8.7 -7.6 -14.3 -12 -5.6 -4.5 -11.5 -9.4 -13.2 -10.9 -1.6 -1.5 -6.4 -5.1 -10.5 -8.1 -4.1 -2.9 -9.8 -7.3 -12.6 -9.7 -2.8 -2.3 -5.4 -4.3 -5.8 -4.3 -0.6 0 -12.6 -9.1 -19.9 -15.2 -2.1 -1.8 -5.1 -4 -6.5 -4.9 -6.3 -3.9 -22.8 -22.9 -25.1 -28.9 -0.8 -1.9 -2.5 -5 -3.8 -6.8 -1.4 -1.8 -3.6 -7.2 -5 -12 -2.5 -8.5 -2.6 -9.4 -3 -48.9 l-0.5 -40.3 -8.6 -8.2 c-4.7 -4.6 -10.7 -10.3 -13.2 -12.7 -2.5 -2.5 -7.3 -6.8 -10.6 -9.7 -6.4 -5.4 -6.7 -5.8 -18 -16.4 -8.1 -7.7 -13.9 -12.8 -26.2 -23 -8.5 -7 -9.1 -7.8 -9.1 -11.3 -0.1 -3.4 0.6 -4.4 7.2 -10.7 3.9 -3.9 8.2 -7.3 9.4 -7.6 1.2 -0.3 3.3 -2.3 4.7 -4.5 1.5 -2.1 3 -3.9 3.4 -3.9 0.4 0 3.2 -2.4 6.3 -5.2 3.1 -2.9 8.2 -7.6 11.3 -10.4 l5.6 -5.2 0 -32.9 c0 -18.2 0.3 -37.1 0.6 -42.1 l0.7 -9.2 4.6 0 c2.7 0 5.7 0.7 7.2 1.8 3.8 2.4 14.7 11.8 19.4 16.6 2.2 2.3 6.2 5.9 9 8.1 2.7 2.2 6.2 5.5 7.8 7.3 1.6 1.7 3.4 3.2 4 3.2 0.5 0 3.5 2.3 6.5 5.2 5.2 4.9 5.5 5.1 6.8 3.2 0.7 -1 1.8 -2.4 2.4 -3.1 0.5 -0.7 1 -1.5 1 -1.9 0 -0.3 1.4 -2.3 3 -4.4 1.7 -2.1 3 -4.1 3 -4.5 0 -0.4 2.9 -4.2 6.4 -8.4 3.5 -4.2 7 -8.9 7.7 -10.3 1.4 -2.6 7.1 -10.3 17 -23.1 3 -4 6.4 -8.5 7.5 -10.2 1 -1.6 5.4 -7.8 9.6 -13.7 4.3 -5.9 7.8 -11 7.8 -11.3 0 -0.4 1.3 -2.3 3 -4.3 6.1 -7.7 15.8 -21 21.4 -29.5 l5.7 -8.8 4.2 0.3 c3.7 0.3 4.4 0.7 5.9 3.8 1 1.9 3.1 5.1 4.9 7 1.7 1.9 5.9 7.8 9.5 13 7.5 11.2 14.6 21.2 20.9 29.5 14.6 19.5 18.9 25.4 26.5 36.4 1.9 2.8 6.5 9.3 10.2 14.3 3.7 5.1 7.8 10.8 9 12.6 1.3 1.9 3.5 4.8 4.9 6.5 1.5 1.8 3.6 5 4.7 7.3 3.8 7.4 4.3 7.5 12.5 0.3 3.9 -3.5 8.3 -7.5 9.7 -8.9 2.6 -2.5 8.8 -8 23.5 -20.6 4.4 -3.8 9.6 -8.6 11.6 -10.6 3 -3.1 4.3 -3.8 7.5 -3.8 2.1 0 4.4 0.4 5.1 0.8 0.8 0.5 1.3 12.6 1.8 41.6 l0.8 40.8 4.1 3.8 c9.7 8.9 22.8 20 23.6 20 0.5 0 1.8 1.5 2.9 3.3 1.1 1.9 3.2 3.9 4.7 4.6 1.4 0.6 5.9 4.2 10 7.9 6.8 6.2 7.4 7 7.4 10.7 0 3 -0.5 4.3 -2.2 5.4 -3.5 2.2 -20.6 16 -21.5 17.4 -0.4 0.6 -2.7 2.5 -5 4.1 -2.4 1.6 -4.3 3.2 -4.3 3.6 0 0.5 -3 3.2 -6.7 6.1 -3.8 2.9 -7.7 6.2 -8.9 7.4 -1.1 1.1 -6.7 6.1 -12.4 11 -5.6 5 -14.3 12.9 -19.1 17.6 -8.3 8 -8.9 8.8 -8.9 12.6 0 2.2 -0.1 19.5 -0.3 38.4 -0.4 39.3 -0.4 39.6 -7.6 55 -1.7 3.6 -3.1 6.8 -3.1 7.2 0 0.8 -3.6 6 -9.1 13.2 -4.4 5.7 -14.4 15.6 -20.1 20 -1.5 1.1 -9.3 7.2 -17.4 13.5 -8.1 6.3 -17.4 13.5 -20.8 16 -3.4 2.5 -9.3 7 -13 10 -3.7 3 -8.7 6.9 -11 8.7 -2.2 1.8 -6.5 5.1 -9.5 7.5 -14.1 11.3 -15 11.8 -20.1 11.8 -4.3 0 -5.3 -0.5 -9 -4z m15 -37.7 c3.2 -2.7 8.5 -6.7 11.7 -9.1 3.2 -2.3 8.4 -6.4 11.5 -9 3.1 -2.6 8.8 -7.1 12.5 -10 3.7 -3 11.6 -9.1 17.4 -13.7 15.4 -12.1 29.2 -27 33.5 -36.2 6.4 -13.4 9.1 -30 7.9 -48.5 l-0.7 -10.8 -3.2 2.6 c-1.7 1.4 -6.1 5.4 -9.7 8.7 -6.9 6.4 -7.9 7.4 -19.3 16.9 -3.7 3.2 -9.8 8.5 -13.5 11.8 -22.5 20.1 -31.4 28 -35.6 31.5 -2.7 2.2 -5.8 4.9 -6.9 6 -8.2 8.1 -12.7 8.6 -18.8 1.9 -5.4 -5.9 -13.6 -13.6 -26.3 -24.9 -9 -8.1 -16.9 -15.2 -43.5 -39.5 -4.7 -4.3 -11.2 -10.1 -14.5 -13 l-6 -5.2 -0.3 12.9 c-0.4 15 1.2 33.3 3.3 39.5 3.3 9.4 12.4 23.6 19.3 30 2.2 2 4.2 4.1 4.3 4.6 0.2 0.5 4 3.8 8.5 7.4 4.4 3.6 9.4 7.7 11 9.1 1.6 1.4 4.3 3.6 6.1 4.9 5.6 4.1 18.5 14.2 22.7 17.8 2.3 2 6.6 5.4 9.6 7.7 3 2.3 7.1 5.8 8.9 7.7 1.9 2 3.6 3.6 3.8 3.6 0.2 0 3 -2.1 6.3 -4.7z m-20.8 -234.4 l0.3 -123.1 4 -3.5 c2.2 -1.9 6.5 -5.9 9.6 -8.9 4.9 -4.8 6.1 -5.4 9.7 -5.4 3.3 0 4.4 0.5 5.3 2.3 0.9 1.7 1.4 33.3 1.7 131.5 0.3 71.4 0.9 129.2 1.3 129.2 0.5 0 0.9 -0.4 0.9 -1 0 -0.5 3.5 -3.8 7.7 -7.2 4.3 -3.5 9.6 -8.1 11.9 -10.3 2.2 -2.2 8.9 -8.3 14.9 -13.5 14.8 -12.8 18.2 -15.8 22.9 -20.3 2.2 -2.2 5.2 -4.8 6.6 -5.9 1.4 -1.1 6.1 -5.2 10.4 -9.1 4.4 -4 10.5 -9.4 13.6 -12.2 5.5 -4.8 16.7 -14.7 22.1 -19.7 1.4 -1.2 3.7 -3.2 5 -4.4 1.3 -1.1 7.2 -6.3 13.1 -11.6 5.9 -5.3 13.4 -11.7 16.7 -14.3 3.4 -2.7 6.1 -5.1 6.1 -5.4 -0.1 -0.3 -2 -1.8 -4.3 -3.2 -9.3 -5.7 -10.7 -6.4 -12.1 -5.4 -9.6 7 -21 16.1 -22.5 18.1 -1.1 1.4 -4.8 4.8 -8.3 7.5 -3.5 2.8 -10.8 9.2 -16.4 14.2 -10.3 9.4 -30.7 27.1 -39.4 34.2 -24.8 20.3 -23.8 19.6 -27.8 19.3 l-3.7 -0.3 0.1 -16.1 c0.1 -11.4 0.5 -16.9 1.5 -18.9 0.8 -1.6 7.3 -7.8 14.4 -13.8 7.2 -6 15.7 -13.2 19 -16.1 3.3 -2.9 7.8 -6.8 10 -8.7 2.2 -1.8 6.5 -5.6 9.6 -8.4 3.1 -2.7 9.3 -8.1 13.8 -12 13.9 -11.9 30.6 -26.8 31.4 -28.1 0.8 -1.3 1.3 -28.2 0.5 -28.9 -0.2 -0.2 -3.5 2.1 -7.3 5.1 -3.9 3 -9.4 7.3 -12.4 9.7 -3 2.3 -7 5.9 -9 7.9 -11.5 11.7 -16.8 13.5 -22.5 7.5 -1.7 -1.9 -4.3 -5.4 -5.6 -7.9 -1.4 -2.5 -6.1 -9.8 -10.5 -16.2 -4.4 -6.4 -8.5 -12.4 -9 -13.4 -3 -5.1 -7.2 -11.2 -10.2 -14.8 -1.8 -2.3 -3.3 -4.6 -3.3 -5.2 0 -0.6 -0.6 -1.5 -1.3 -1.9 -0.8 -0.4 -2.7 -2.8 -4.3 -5.3 -1.6 -2.5 -4.5 -6.4 -6.4 -8.7 -2 -2.2 -8.9 -11.5 -15.3 -20.5 -6.4 -8.9 -13.2 -18.1 -15.1 -20.2 l-3.3 -4 -4.7 6.5 c-12.9 17.9 -22.6 31.1 -31.4 42.4 -2.1 2.8 -5.4 7.2 -7.3 10 -1.9 2.7 -5.2 7.3 -7.4 10.1 -2.2 2.8 -5.8 7.7 -8 10.9 -2.2 3.2 -6.1 8.7 -8.7 12.1 -2.7 3.5 -4.8 6.7 -4.8 7.2 0 0.5 -1.5 2.6 -3.3 4.8 -1.8 2.1 -4.4 5.7 -5.7 7.9 -4.1 7.1 -5.9 8.5 -10.6 8.5 -4.5 0 -5.8 -1 -25.9 -19.8 -2.7 -2.6 -6.8 -6.1 -9 -7.7 -2.2 -1.7 -4.5 -3.7 -5.2 -4.5 -1 -1.2 -1.2 1.3 -1.3 12.2 l0 13.7 3.3 3.3 c8.3 8.4 24.5 23.4 37.7 34.8 7.9 6.9 17.2 15.2 20.7 18.5 3.4 3.3 9.9 9.2 14.5 13 13.1 11.2 21.2 18.7 22.5 21 1.4 2.2 1.7 21.3 0.5 28 -0.7 3.9 -0.8 4 -5.3 4.3 -4.5 0.3 -4.6 0.2 -15 -9.4 -5.7 -5.3 -13.5 -12.3 -17.4 -15.5 -3.8 -3.2 -10.4 -8.8 -14.5 -12.3 -6.5 -5.6 -30.8 -26.4 -35 -29.9 -0.8 -0.6 -4.4 -3.9 -8.1 -7.2 -3.6 -3.3 -9.5 -8.6 -13.1 -11.7 l-6.5 -5.7 -5.9 4 c-9.3 6.3 -9.2 6.1 -3.9 10 2.6 1.9 7.7 6.2 11.4 9.5 3.6 3.4 10.9 9.9 16.1 14.4 5.2 4.6 12.9 11.5 17 15.4 11.7 11.1 32.9 30.8 39 36.2 3 2.7 9.1 8.2 13.5 12.1 4.4 4 11.7 10.5 16.2 14.5 7.9 6.9 13.1 11.8 15 13.9 0.4 0.5 2.7 2.3 5.1 4 2.3 1.6 5.5 4.7 7 6.9 1.5 2.2 3 3.9 3.4 4 0.4 0 0.8 -55.4 1 -123.1z"/>
</svg>