<svg version="1.0" xmlns="http://www.w3.org/2000/svg" width="124px" height="14px" viewBox="0 0 1244 140" >
  <path d="M0 130 l0 -10 60 0 60 0 0 -50 0 -50 -30 0 -30 0 0 -10 0 -10 40 0 40 0 0 70 0 70 -70 0 -70 0 0 -10z"/>
  <path d="M232 130 l0 -10 25 0 25 0 0 -43.2 0 -43.3 -53 53 -53 53 -6.7 -6.8 -6.8 -6.7 63 -63 63 -63 6.7 0 6.8 0 0 70 0 70 -35 0 -35 0 0 -10z"/>
  <path d="M342 70 l0 -70 70 0 70 0 0 50 0 50 -13.2 0 -13.3 0 13 13 13 13 -6.8 6.7 -6.7 6.8 -19.8 -19.8 -19.7 -19.7 -33.3 0 -33.2 0 0 20 0 20 -10 0 -10 0 0 -70z m120 -20 l0 -30 -50 0 -50 0 0 30 0 30 50 0 50 0 0 -30z"/>
  <path d="M522 70 l0 -70 70 0 70 0 0 10 0 10 -60 0 -60 0 0 20 0 20 60 0 60 0 0 10 0 10 -60 0 -60 0 0 20 0 20 60 0 60 0 0 10 0 10 -70 0 -70 0 0 -70z"/>
  <path d="M702 70 l0 -70 70 0 70 0 0 70 0 70 -50 0 -50 0 0 -10 0 -10 40 0 40 0 0 -50 0 -50 -50 0 -50 0 0 60 0 60 -10 0 -10 0 0 -70z"/>
  <path d="M882 70 l0 -70 10 0 10 0 0 70 0 70 -10 0 -10 0 0 -70z"/>
  <path d="M994 130 l0 -10 25 0 25 0 0 -43.2 0 -43.3 -53 53 -53 53 -6.7 -6.8 -6.8 -6.7 63 -63 63 -63 6.7 0 6.8 0 0 70 0 70 -35 0 -35 0 0 -10z"/>
  <path d="M1104 70 l0 -70 6.7 0 6.8 0 53.2 53.2 53.3 53.3 0 -53.3 0 -53.2 10 0 10 0 0 70 0 70 -6.7 0 -6.8 0 -53.2 -53.2 -53.3 -53.3 0 53.3 0 53.2 -10 0 -10 0 0 -70z"/>
</svg>